<?xml version="1.0" standalone="no"?>
<!DOCTYPE svg PUBLIC "-//W3C//DTD SVG 20010904//EN"
 "http://www.w3.org/TR/2001/REC-SVG-20010904/DTD/svg10.dtd">
<svg version="1.0" xmlns="http://www.w3.org/2000/svg"
 width="2000.000000pt" height="2000.000000pt" viewBox="0 0 2000.000000 2000.000000"
 preserveAspectRatio="xMidYMid meet">

<g transform="translate(0.000000,2000.000000) scale(0.100000,-0.100000)"
fill="#000000" stroke="none">
<path d="M7830 14508 c-6 -13 -87 -212 -180 -443 l-169 -420 -713 -5 -713 -5
-6 -105 c-4 -58 -9 -144 -12 -191 l-5 -87 57 -6 c31 -3 306 -24 611 -46 305
-22 570 -43 588 -46 l32 -5 0 -3049 0 -3048 -62 -7 c-35 -3 -324 -26 -642 -50
-319 -25 -580 -46 -581 -48 -2 -1 3 -101 11 -222 7 -121 13 -239 13 -262 l1
-43 700 0 700 0 0 -85 c0 -63 3 -83 13 -80 8 4 71 -139 193 -437 l181 -443
209 0 209 0 3 523 2 522 928 0 c981 0 1153 6 1487 50 762 102 1414 371 1937
802 183 151 424 414 562 615 280 408 471 929 550 1498 33 237 40 358 40 710 0
352 -7 474 -40 710 -96 691 -331 1260 -716 1728 -95 115 -323 339 -440 431
-509 404 -1144 669 -1843 770 -330 48 -348 49 -1432 53 l-1033 4 -2 367 -3
367 -213 3 c-212 2 -212 2 -222 -20z m1735 -1368 c536 -9 627 -16 905 -66 270
-49 491 -121 745 -244 476 -231 821 -570 1071 -1055 175 -338 281 -703 339
-1165 22 -171 31 -665 16 -856 -66 -831 -341 -1492 -812 -1950 -405 -393 -932
-622 -1634 -710 -128 -16 -839 -31 -1557 -33 l-268 -1 0 3045 0 3045 343 -1
c188 0 572 -4 852 -9z"/>
</g>
</svg>
